<svg width="467" height="428" viewBox="0 0 467 428" fill="none" xmlns="http://www.w3.org/2000/svg">
<rect x="58.4126" y="8" width="400.542" height="404" rx="200.271" fill="#61E09A"/>
<rect x="58.4126" y="8" width="400.542" height="404" rx="200.271" stroke="black" stroke-width="16"/>
<path d="M217.571 287.527L165.888 235.843L187.028 214.703L217.571 245.247L330.343 132.476L351.483 153.616L217.571 287.527Z" fill="white"/>
<path d="M217.57 295C215.588 295 213.686 294.212 212.285 292.81L160.601 241.126C159.2 239.724 158.413 237.823 158.413 235.841C158.413 233.859 159.2 231.958 160.601 230.556L181.741 209.416C183.143 208.015 185.044 207.227 187.026 207.227C189.008 207.227 190.909 208.015 192.311 209.416L217.57 234.675L325.056 127.189C326.458 125.787 328.359 125 330.341 125C332.323 125 334.224 125.787 335.626 127.189L356.766 148.329C358.168 149.73 358.955 151.631 358.955 153.614C358.955 155.596 358.168 157.497 356.766 158.899L222.855 292.81C221.453 294.212 219.552 295 217.57 295ZM176.456 235.841L217.57 276.955L340.911 153.614L330.341 143.044L222.855 250.53C221.453 251.931 219.552 252.719 217.57 252.719C215.588 252.719 213.687 251.931 212.285 250.53L187.026 225.271L176.456 235.841Z" fill="#231F20"/>
<path d="M92.2063 196L98.4908 191.05L92.2209 183.09L85.9329 191.036L92.2063 196ZM92.2063 196C98.4908 191.05 98.4917 191.051 98.4927 191.052L98.4964 191.057L98.5089 191.073L98.5544 191.131L98.7263 191.35C98.8763 191.542 99.0961 191.824 99.3813 192.191C99.9515 192.926 100.783 194.002 101.838 195.384C103.949 198.147 106.956 202.132 110.562 207.044C117.768 216.859 127.391 230.41 137.028 245.32C146.647 260.202 156.377 276.585 163.73 292.042C170.944 307.208 176.413 322.569 176.413 335.05C176.413 382.175 138.559 420 92.2063 420C45.8539 420 8 382.175 8 335.05C8 322.465 13.4609 307.055 20.6811 291.856C28.0356 276.373 37.7675 260.001 47.3882 245.145C57.0269 230.262 66.6513 216.751 73.8585 206.969C77.465 202.075 80.4731 198.105 82.584 195.353C83.6396 193.976 84.4713 192.904 85.0418 192.172C85.327 191.807 85.547 191.526 85.6971 191.335L85.8692 191.116L85.9148 191.059L85.9273 191.043L85.931 191.038C85.9321 191.037 85.9329 191.036 92.2063 196Z" fill="#D0E1ED" stroke="black" stroke-width="16"/>
<path d="M70.0083 385.45C48.099 385.45 30 360.25 30 328.75C30 325.15 32.2228 322 34.7629 322C37.303 322 39.5258 325.15 39.5258 328.75C39.5258 352.6 53.1795 371.95 70.0083 371.95C72.5484 371.95 74.7712 375.1 74.7712 378.7C74.7712 382.3 72.5484 385.45 70.0083 385.45Z" fill="#89B4D3"/>
</svg>
