<svg width="49" height="50" viewBox="0 0 49 50" fill="none" xmlns="http://www.w3.org/2000/svg">
<rect width="49" height="50" rx="5" fill="#0084CF"/>
<path d="M25 26C25.5523 26 26 25.5523 26 25C26 24.4477 25.5523 24 25 24C24.4477 24 24 24.4477 24 25C24 25.5523 24.4477 26 25 26Z" stroke="white" stroke-width="2" stroke-linecap="round" stroke-linejoin="round"/>
<path d="M25 19C25.5523 19 26 18.5523 26 18C26 17.4477 25.5523 17 25 17C24.4477 17 24 17.4477 24 18C24 18.5523 24.4477 19 25 19Z" stroke="white" stroke-width="2" stroke-linecap="round" stroke-linejoin="round"/>
<path d="M25 33C25.5523 33 26 32.5523 26 32C26 31.4477 25.5523 31 25 31C24.4477 31 24 31.4477 24 32C24 32.5523 24.4477 33 25 33Z" stroke="white" stroke-width="2" stroke-linecap="round" stroke-linejoin="round"/>
</svg>
