<svg width="39" height="39" viewBox="0 0 39 39" fill="none" xmlns="http://www.w3.org/2000/svg">
<path d="M26.0498 5.03711L26.0498 9.85192M13.2103 5.03711L13.2103 9.85192" stroke="#17171D" stroke-width="0.962963" stroke-linecap="round"/>
<path d="M26.0498 5.03711L26.0498 9.85192M13.2103 5.03711L13.2103 9.85192" stroke="#17171D" stroke-width="0.962963" stroke-linecap="round"/>
<path d="M15.1365 6.64062V5.9184H14.4143V6.64062L15.1365 6.64062ZM24.1241 6.64062H24.8464V5.9184H24.1241V6.64062ZM15.1365 9.85113L14.4143 9.85113V9.85113H15.1365ZM13.2106 11.7771V12.4993V11.7771ZM11.2846 9.85113L12.0068 9.85113V9.85113H11.2846ZM11.2846 6.67947L12.0068 6.67947V5.92852L11.2565 5.95779L11.2846 6.67947ZM6.59577 8.05085L7.10646 8.56154L6.59577 8.05085ZM6.59577 32.5143L7.10646 32.0037H7.10646L6.59577 32.5143ZM32.6642 32.5143L33.1749 33.025L32.6642 32.5143ZM32.6642 8.05085L33.1749 7.54016V7.54016L32.6642 8.05085ZM27.976 6.67949L28.0041 5.95782L27.2538 5.92853V6.67949L27.976 6.67949ZM27.976 9.85112L27.2538 9.85112V9.85112H27.976ZM24.1241 9.85112L24.8464 9.85112V9.85112H24.1241ZM15.1365 7.36285H24.1241V5.9184H15.1365V7.36285ZM14.4143 6.64062L14.4143 9.85113L15.8587 9.85113L15.8587 6.64063L14.4143 6.64062ZM14.4143 9.85113C14.4143 10.5159 13.8753 11.0548 13.2106 11.0548V12.4993C14.6731 12.4993 15.8587 11.3137 15.8587 9.85113H14.4143ZM13.2106 11.0548C12.5458 11.0548 12.0068 10.5159 12.0068 9.85113L10.5624 9.85113C10.5624 11.3137 11.748 12.4993 13.2106 12.4993V11.0548ZM12.0068 9.85113L12.0068 6.67947L10.5624 6.67947L10.5624 9.85113L12.0068 9.85113ZM7.10646 8.56154C7.87626 7.79175 9.01624 7.49072 11.3128 7.40114L11.2565 5.95779C8.95017 6.04776 7.28397 6.34128 6.08509 7.54016L7.10646 8.56154ZM5.90777 16.2703C5.90777 13.9801 5.9093 12.3352 6.07761 11.0833C6.24312 9.85227 6.5579 9.1101 7.10646 8.56154L6.08509 7.54016C5.22342 8.40183 4.83309 9.49963 4.64604 10.8909C4.46179 12.2613 4.46332 14.0209 4.46332 16.2703H5.90777ZM5.90777 24.2949V16.2703H4.46332V24.2949H5.90777ZM7.10646 32.0037C6.5579 31.4551 6.24312 30.7129 6.07761 29.4819C5.9093 28.23 5.90777 26.5851 5.90777 24.2949H4.46332C4.46332 26.5443 4.46179 28.3039 4.64604 29.6743C4.83309 31.0656 5.22342 32.1634 6.08509 33.025L7.10646 32.0037ZM14.8152 33.2024C12.525 33.2024 10.8801 33.2008 9.62825 33.0325C8.3972 32.867 7.65502 32.5522 7.10646 32.0037L6.08509 33.025C6.94675 33.8867 8.04455 34.277 9.43578 34.4641C10.8062 34.6483 12.5659 34.6468 14.8152 34.6468V33.2024ZM24.4448 33.2024H14.8152V34.6468H24.4448V33.2024ZM32.1535 32.0037C31.605 32.5522 30.8628 32.867 29.6317 33.0325C28.3799 33.2008 26.7349 33.2024 24.4448 33.2024V34.6468C26.6941 34.6468 28.4537 34.6483 29.8242 34.4641C31.2154 34.277 32.3132 33.8867 33.1749 33.025L32.1535 32.0037ZM33.3522 24.2949C33.3522 26.5851 33.3507 28.23 33.1824 29.4819C33.0169 30.7129 32.7021 31.4551 32.1535 32.0037L33.1749 33.025C34.0366 32.1634 34.4269 31.0656 34.6139 29.6743C34.7982 28.3039 34.7967 26.5443 34.7967 24.2949H33.3522ZM33.3522 16.2703V24.2949H34.7967V16.2703H33.3522ZM32.1535 8.56154C32.7021 9.1101 33.0169 9.85227 33.1824 11.0833C33.3507 12.3352 33.3522 13.9801 33.3522 16.2703H34.7967C34.7967 14.0209 34.7982 12.2613 34.6139 10.8909C34.4269 9.49963 34.0366 8.40183 33.1749 7.54016L32.1535 8.56154ZM27.9478 7.40116C30.244 7.49078 31.3838 7.79182 32.1535 8.56154L33.1749 7.54016C31.9761 6.34138 30.3101 6.04782 28.0041 5.95782L27.9478 7.40116ZM27.2538 6.67949L27.2538 9.85112L28.6982 9.85112L28.6982 6.67949L27.2538 6.67949ZM27.2538 9.85112C27.2538 10.5159 26.7148 11.0548 26.0501 11.0548L26.0501 12.4993C27.5126 12.4993 28.6982 11.3137 28.6982 9.85112H27.2538ZM26.0501 11.0548C25.3853 11.0548 24.8464 10.5159 24.8464 9.85112L23.4019 9.85112C23.4019 11.3137 24.5875 12.4993 26.0501 12.4993L26.0501 11.0548ZM24.8464 9.85112V6.64062H23.4019V9.85112H24.8464Z" fill="black"/>
<path d="M8.79644 15.631C8.79644 14.9662 9.33536 14.4273 10.0001 14.4273H29.2594C29.9242 14.4273 30.4631 14.9662 30.4631 15.631V29.1125C30.4631 29.7773 29.9242 30.3162 29.2594 30.3162H10.0001C9.33536 30.3162 8.79644 29.7773 8.79644 29.1125V15.631Z" stroke="black" stroke-width="1.44444"/>
</svg>
