<svg width="39" height="39" viewBox="0 0 39 39" fill="none" xmlns="http://www.w3.org/2000/svg">
<circle cx="19.5922" cy="19.4828" r="3.61111" stroke="#0084CF" stroke-width="2.40741"/>
<path d="M29.7754 18.8806C29.895 19.1412 29.9548 19.2715 29.9548 19.482C29.9548 19.6924 29.895 19.8227 29.7754 20.0833C28.9795 21.8174 26.1543 26.7042 19.5923 26.7042C13.0302 26.7042 10.205 21.8174 9.40909 20.0833C9.28948 19.8227 9.22967 19.6924 9.22967 19.482C9.22967 19.2715 9.28948 19.1412 9.40909 18.8806C10.205 17.1466 13.0302 12.2598 19.5923 12.2598C26.1543 12.2598 28.9795 17.1466 29.7754 18.8806Z" stroke="#0084CF" stroke-width="2.40741"/>
<path d="M28.4199 5.83984H31.1804C32.9054 5.83984 33.7679 5.83984 34.3038 6.37573C34.8397 6.91162 34.8397 7.77411 34.8397 9.4991V12.2596" stroke="#0084CF" stroke-width="2.40741" stroke-linecap="round"/>
<path d="M28.4199 33.123H31.1804C32.9054 33.123 33.7679 33.123 34.3038 32.5872C34.8397 32.0513 34.8397 31.1888 34.8397 29.4638V26.7033" stroke="#0084CF" stroke-width="2.40741" stroke-linecap="round"/>
<path d="M10.7646 5.83984H8.00415C6.27916 5.83984 5.41667 5.83984 4.88078 6.37573C4.3449 6.91162 4.3449 7.77411 4.3449 9.4991V12.2596" stroke="#0084CF" stroke-width="2.40741" stroke-linecap="round"/>
<path d="M10.7646 33.123H8.00415C6.27916 33.123 5.41667 33.123 4.88078 32.5872C4.3449 32.0513 4.3449 31.1888 4.3449 29.4638V26.7033" stroke="#0084CF" stroke-width="2.40741" stroke-linecap="round"/>
</svg>
