<svg width="24" height="25" viewBox="0 0 24 25" fill="none" xmlns="http://www.w3.org/2000/svg">
<path d="M1.60551 8.875C8.54858 8.875 15.4622 8.875 22.3993 8.875C22.3993 8.96348 22.3993 9.04017 22.3993 9.12276C22.3993 12.9512 22.3993 16.7737 22.3993 20.6021C22.3993 21.9766 21.4791 22.8968 20.0928 22.8968C14.6953 22.8968 9.29775 22.8968 3.9002 22.8968C2.51985 22.8968 1.59961 21.9766 1.59961 20.5962C1.59961 16.7796 1.59961 12.9571 1.59961 9.14045C1.60551 9.05197 1.60551 8.97528 1.60551 8.875ZM5.07999 11.4587C5.07999 12.3613 5.07999 13.2402 5.07999 14.1192C5.97663 14.1192 6.85558 14.1192 7.74042 14.1192C7.74042 13.2225 7.74042 12.3436 7.74042 11.4587C6.84378 11.4587 5.97074 11.4587 5.07999 11.4587ZM18.9189 14.131C18.9189 13.2284 18.9189 12.3495 18.9189 11.4646C18.0223 11.4646 17.1375 11.4646 16.2644 11.4646C16.2644 12.3613 16.2644 13.2402 16.2644 14.131C17.1552 14.131 18.0282 14.131 18.9189 14.131ZM13.3267 11.4705C12.436 11.4705 11.557 11.4705 10.6781 11.4705C10.6781 12.3672 10.6781 13.2461 10.6781 14.1251C11.5688 14.1251 12.4419 14.1251 13.3267 14.1251C13.3267 13.2343 13.3267 12.3554 13.3267 11.4705ZM7.74042 17.104C6.84378 17.104 5.96484 17.104 5.07409 17.104C5.07409 17.9948 5.07409 18.8737 5.07409 19.7586C5.97074 19.7586 6.84968 19.7586 7.74042 19.7586C7.74042 18.8678 7.74042 17.9948 7.74042 17.104ZM18.9248 19.7586C18.9248 18.8678 18.9248 17.9889 18.9248 17.104C18.0282 17.104 17.1493 17.104 16.2644 17.104C16.2644 17.9948 16.2644 18.8737 16.2644 19.7586C17.1493 19.7586 18.0282 19.7586 18.9248 19.7586ZM10.6722 19.7586C11.5688 19.7586 12.4419 19.7586 13.3267 19.7586C13.3267 18.8678 13.3267 17.9889 13.3267 17.1099C12.436 17.1099 11.557 17.1099 10.6722 17.1099C10.6722 17.9948 10.6722 18.8678 10.6722 19.7586Z" fill="white"/>
<path d="M6.86758 4.2573C6.86758 3.7028 6.86758 3.17779 6.86758 2.65279C6.86758 2.25756 7.02685 2.10418 7.41618 2.10418C7.68163 2.10418 7.94708 2.10418 8.21254 2.10418C8.59007 2.10418 8.74934 2.26346 8.74934 2.64689C8.75524 3.09521 8.74934 3.54353 8.74934 3.99775C8.74934 4.07444 8.74934 4.15702 8.74934 4.24551C10.9202 4.24551 13.0615 4.24551 15.2264 4.24551C15.2323 4.16292 15.2382 4.08033 15.2382 4.00365C15.2382 3.53763 15.2323 3.07751 15.2382 2.61149C15.2441 2.27525 15.4152 2.11008 15.7455 2.10418C16.0405 2.10418 16.3354 2.09829 16.6303 2.10418C16.9489 2.11008 17.12 2.28115 17.12 2.5997C17.1259 3.07161 17.12 3.54353 17.12 4.01545C17.12 4.08623 17.12 4.15702 17.12 4.2573C17.2202 4.2573 17.3028 4.2573 17.3795 4.2573C18.2939 4.2573 19.2082 4.2573 20.1225 4.2573C21.4616 4.2632 22.3818 5.18344 22.3877 6.5225C22.3877 6.94133 22.3877 7.36015 22.3877 7.79078C15.4506 7.79078 8.53698 7.79078 1.57031 7.79078C1.59391 7.16549 1.55851 6.5402 1.6647 5.93851C1.83577 4.94158 2.73831 4.2632 3.78832 4.2573C4.72625 4.2514 5.65829 4.2573 6.59622 4.2573C6.67881 4.2573 6.76139 4.2573 6.86758 4.2573Z" fill="white"/>
</svg>
