<svg width="22" height="21" viewBox="0 0 22 21" fill="none" xmlns="http://www.w3.org/2000/svg">
<path d="M6.21486 10.9953C5.91018 10.9953 5.67111 10.9953 5.42736 10.9953C3.90393 11.0047 2.83986 12.0688 2.8258 13.5922C2.82111 14.0844 2.8258 14.5766 2.8258 15.0688C2.8258 15.1531 2.8258 15.2375 2.8258 15.336C2.21174 15.336 1.62111 15.336 1.00705 15.336C1.00236 15.2469 0.997676 15.1672 0.997676 15.0828C0.997676 11.4406 1.01174 7.80314 0.988301 4.16096C0.983613 3.02189 1.81799 2.11252 3.03205 2.11721C6.5383 2.13596 10.0492 2.12189 13.5555 2.12189C13.6258 2.12189 13.6961 2.12189 13.8039 2.12189C13.7617 2.20627 13.7383 2.26252 13.7055 2.31877C13.0352 3.46252 12.9274 4.64846 13.3774 5.89533C13.4196 6.01721 13.4242 6.17189 13.3914 6.29377C13.3071 6.57033 13.1992 6.83752 13.0774 7.10002C12.6649 8.00471 13.2508 8.90939 14.2446 8.83908C14.793 8.79689 15.3321 8.64221 15.8758 8.54377C15.9789 8.52502 16.0914 8.50627 16.1852 8.53439C17.8399 9.07346 19.4008 8.90471 20.868 7.95314C20.9008 7.93439 20.9336 7.91564 20.9852 7.88752C20.9852 10.3766 20.9852 12.8422 20.9852 15.3266C18.5992 15.3266 16.2133 15.3266 13.7992 15.3266C13.7946 15.2469 13.7899 15.1672 13.7852 15.0828C13.7805 14.4969 13.7992 13.911 13.7664 13.325C13.7055 12.0781 12.6883 11.0703 11.4367 11C11.1133 10.9813 10.7852 10.9953 10.4055 10.9953C10.5461 10.8313 10.6492 10.7188 10.7383 10.5969C11.6289 9.40627 12.0836 8.09846 11.793 6.60314C11.4649 4.92971 9.96486 3.70158 8.29143 3.71096C6.62268 3.72033 5.14143 4.93908 4.81799 6.61252C4.50861 8.21096 5.0383 9.57971 6.04143 10.7985C6.07893 10.85 6.1258 10.8969 6.21486 10.9953Z" fill="white"/>
<path d="M10.9775 20.0188C8.15095 20.0188 5.32439 20.0235 2.49314 20.0188C1.3447 20.0188 0.416578 19.3298 0.205641 18.2563C0.107203 17.7595 0.140016 17.2298 0.140016 16.7188C0.140016 16.4798 0.332203 16.3251 0.571266 16.3063C0.641578 16.3017 0.711891 16.3017 0.782203 16.3017C3.04158 16.3017 5.29627 16.3063 7.55564 16.297C8.07127 16.2923 8.46033 16.4657 8.73689 16.9063C8.93845 17.2251 9.23845 17.3985 9.61814 17.4032C10.3822 17.4126 11.151 17.4126 11.915 17.4032C12.2947 17.3985 12.5947 17.2204 12.7916 16.9017C13.0635 16.4704 13.4431 16.297 13.9541 16.297C16.3822 16.3063 18.8103 16.3017 21.2431 16.3017C21.7213 16.3017 21.8806 16.4517 21.8713 16.9298C21.8619 17.3657 21.89 17.811 21.8056 18.2376C21.5947 19.3157 20.6666 20.0188 19.5088 20.0188C16.6635 20.0188 13.8181 20.0188 10.9775 20.0188ZM2.27752 18.6876C2.45564 18.6079 2.63845 18.5657 2.76502 18.4626C2.9572 18.2938 2.92908 17.9938 2.74158 17.8157C2.54002 17.6235 2.03377 17.6235 1.82752 17.8157C1.64002 17.9892 1.6072 18.2938 1.79939 18.4626C1.91658 18.5657 2.09939 18.6079 2.27752 18.6876ZM19.7244 18.6267C20.0947 18.6267 20.2541 18.547 20.3385 18.3173C20.4135 18.1251 20.3478 17.9001 20.1791 17.7782C19.9869 17.6376 19.5228 17.6423 19.3353 17.7876C19.1666 17.9188 19.1103 18.1392 19.19 18.3313C19.2978 18.5798 19.5041 18.6407 19.7244 18.6267ZM4.87908 18.6267C5.39002 18.6642 5.5447 18.2985 5.46033 18.0032C5.39002 17.7548 5.15564 17.6517 4.76189 17.6798C4.49939 17.6985 4.32595 17.8392 4.27908 18.0735C4.21814 18.4063 4.4572 18.6267 4.87908 18.6267ZM17.1556 18.6267C17.4041 18.6454 17.6244 18.5938 17.7369 18.336C17.8213 18.1485 17.7556 17.9142 17.5963 17.7876C17.3994 17.6329 16.926 17.6376 16.7338 17.7923C16.5744 17.9188 16.5135 18.1532 16.5978 18.3407C16.701 18.5845 16.9119 18.6407 17.1556 18.6267Z" fill="white"/>
<path d="M17.8912 7.88888C17.3381 7.89357 16.7615 7.767 16.2084 7.53732C16.1193 7.49982 15.9928 7.49982 15.9084 7.53263C15.3834 7.74357 14.835 7.86544 14.2725 7.90763C13.9068 7.93575 13.8084 7.78107 13.9631 7.44357C14.0662 7.21857 14.1506 6.98419 14.2443 6.74982C14.4131 6.32794 14.4225 5.93888 14.249 5.4795C13.7896 4.26075 14.085 3.1545 14.9662 2.217C16.4943 0.590442 19.3256 0.567004 20.8959 2.15607C22.424 3.70294 22.1006 6.09357 20.2068 7.26544C19.5318 7.68263 18.749 7.89825 17.8912 7.88888ZM18.0084 3.20138C17.4693 3.20138 16.9303 3.19669 16.3959 3.20607C16.1006 3.21075 15.9131 3.40294 15.9084 3.67013C15.9037 3.93732 16.0818 4.14357 16.3771 4.14825C17.4693 4.15763 18.5615 4.15294 19.6537 4.15294C19.8553 4.15294 20.0146 4.0545 20.0943 3.86232C20.235 3.53419 20.0006 3.21544 19.6021 3.21075C19.0725 3.192 18.5381 3.20138 18.0084 3.20138ZM18.0178 4.95919C17.4975 4.95919 16.9725 4.95919 16.4521 4.95919C16.1193 4.95919 15.9225 5.12794 15.9131 5.40919C15.9037 5.7045 16.11 5.89669 16.4428 5.89669C17.4975 5.90138 18.5475 5.90138 19.6021 5.89669C19.9162 5.89669 20.1318 5.69982 20.1365 5.42794C20.1412 5.15138 19.9256 4.95919 19.6115 4.95919C19.0771 4.95919 18.5475 4.95919 18.0178 4.95919Z" fill="white"/>
<path d="M3.78774 15.3551C3.78774 14.6379 3.74555 13.9488 3.79711 13.2691C3.85336 12.5426 4.5143 11.9566 5.24555 11.952C7.28461 11.9379 9.32368 11.9379 11.3627 11.952C12.1596 11.9566 12.8065 12.627 12.8299 13.4332C12.8487 14.1035 12.8393 14.7785 12.8299 15.4488C12.8299 15.5238 12.7643 15.6082 12.708 15.6691C12.4924 15.8895 12.2721 16.1098 12.0424 16.3207C11.9674 16.3863 11.869 16.4613 11.7799 16.466C11.1002 16.4801 10.4205 16.4801 9.74086 16.466C9.6518 16.466 9.53461 16.3957 9.47836 16.3207C9.01899 15.6691 8.40024 15.3551 7.60336 15.3598C6.42211 15.3691 5.24555 15.3598 4.0643 15.3598C3.97992 15.3551 3.88617 15.3551 3.78774 15.3551Z" fill="white"/>
<path d="M5.73828 8.12188C6.79766 7.70469 6.86328 7.64375 7.32266 6.73438C7.88516 7.00156 8.45703 7.25938 9.01484 7.54531C9.37109 7.72813 9.59141 7.70938 9.80703 7.36719C9.94297 7.15156 10.0461 6.91719 10.1773 6.66406C10.4773 6.82812 10.7539 7.0625 10.918 7.38125C10.9883 7.51719 10.9367 7.73281 10.9086 7.90625C10.7305 9.0125 10.257 9.95469 9.34297 10.6297C8.70547 11.0984 8.01172 11.1172 7.35547 10.6766C6.44141 10.0672 5.98203 9.1625 5.73828 8.12188Z" fill="white"/>
<path d="M10.2888 5.63317C10.0498 5.56755 9.84354 5.50192 9.6326 5.45505C9.37479 5.3988 9.17322 5.47849 9.06541 5.67067C8.94822 5.88161 8.99041 6.06911 9.1451 6.25192C9.19666 6.31286 9.20135 6.41599 9.22947 6.50036C9.21072 6.51442 9.19197 6.5238 9.17322 6.53786C9.07947 6.49567 8.98104 6.45349 8.8826 6.4113C8.36229 6.1863 7.84197 5.95661 7.31697 5.7363C6.80604 5.52536 6.57635 5.64724 6.46854 6.1863C6.38416 6.59411 6.22947 6.94567 5.8076 7.10505C5.78885 7.11442 5.76072 7.11442 5.73729 7.11442C5.68572 6.40192 6.32322 5.26755 7.34041 4.85036C8.36228 4.43317 9.6326 4.74724 10.2888 5.63317Z" fill="white"/>
</svg>
