<svg width="24" height="25" viewBox="0 0 24 25" fill="none" xmlns="http://www.w3.org/2000/svg">
<path d="M23.7936 12.8192C23.6952 15.1207 23.6061 17.727 23.4655 20.3285C23.367 22.1801 22.1295 23.5863 20.3249 23.9051C19.6827 24.0176 19.0217 24.041 18.3655 24.0645C16.2514 24.1348 14.1327 24.252 12.0186 24.2285C9.40297 24.2051 6.78735 24.0879 4.17641 23.966C2.31547 23.8817 0.895161 22.6207 0.585786 20.816C0.468599 20.1363 0.459224 19.4332 0.421724 18.7395C0.262349 15.8754 0.196724 13.0113 0.281099 10.1426C0.337349 8.21603 0.421724 6.28478 0.562349 4.3629C0.684224 2.67072 2.16547 1.1754 3.84829 1.06759C6.15922 0.922277 8.47016 0.828527 10.7811 0.772277C13.8045 0.697277 16.8233 0.819152 19.842 1.0254C21.6889 1.15196 23.0998 2.38009 23.4092 4.18009C23.5217 4.83634 23.5405 5.51603 23.5686 6.18634C23.6483 8.29572 23.7139 10.4004 23.7936 12.8192ZM19.4998 12.5098C19.4998 10.7988 19.4998 9.0879 19.4998 7.37696C19.4998 5.96603 18.5389 5.0004 17.1374 5.0004C13.7155 5.0004 10.2936 5.0004 6.87172 5.0004C5.46547 5.0004 4.49985 5.96603 4.49985 7.37228C4.49985 10.7942 4.49985 14.216 4.49985 17.6379C4.49985 19.0395 5.47016 20.0004 6.87641 20.0004C10.2889 20.0004 13.7061 20.0004 17.1186 20.0004C18.5389 20.0004 19.4998 19.0395 19.4998 17.6192C19.4998 15.9176 19.4998 14.2113 19.4998 12.5098Z" fill="white"/>
<path d="M17.9992 11.0195C17.9992 11.1133 17.9992 11.1883 17.9992 11.268C17.9992 13.3867 17.9992 15.5008 17.9992 17.6195C17.9992 18.2242 17.7133 18.5055 17.1086 18.5055C13.7055 18.5055 10.2977 18.5055 6.89453 18.5055C6.28984 18.5055 6.00391 18.2195 6.00391 17.6195C6.00391 15.5008 6.00391 13.3867 6.00391 11.268C6.00391 11.193 6.00391 11.1133 6.00391 11.0195C9.99766 11.0195 13.982 11.0195 17.9992 11.0195Z" fill="white"/>
<path d="M18.0003 9.4974C13.9878 9.4974 10.0128 9.4974 6.02839 9.4974C6.01901 9.46927 6.00026 9.44115 6.00026 9.41302C6.00026 8.68646 5.99089 7.9599 6.00026 7.23333C6.00495 6.80677 6.33776 6.50208 6.78307 6.50208C7.70651 6.4974 8.62526 6.50208 9.5487 6.50208C12.0612 6.50208 14.5784 6.50208 17.0909 6.50208C17.7143 6.50208 17.9956 6.77865 17.9956 7.3974C18.0003 8.09115 18.0003 8.7849 18.0003 9.4974ZM7.50964 8.75208C7.91745 8.7474 8.25495 8.40521 8.25026 8.00208C8.25026 7.59427 7.91276 7.25677 7.50495 7.25677C7.08776 7.25208 6.74557 7.59896 6.75026 8.02083C6.75964 8.42396 7.09714 8.75208 7.50964 8.75208ZM10.5003 8.00677C10.5003 7.59896 10.1721 7.25677 9.76432 7.25208C9.34714 7.2474 9.00026 7.58958 9.00495 8.00677C9.00964 8.41458 9.34245 8.7474 9.75495 8.75208C10.1581 8.75208 10.4956 8.41458 10.5003 8.00677Z" fill="white"/>
</svg>
