<svg width="24" height="25" viewBox="0 0 24 25" fill="none" xmlns="http://www.w3.org/2000/svg">
<g clip-path="url(#clip0_564_701)">
<path d="M14.3921 24.5C12.7983 24.5 11.2046 24.5 9.61081 24.5C9.05768 24.3266 8.7905 23.9422 8.69675 23.3797C8.55143 22.5359 8.35456 21.6969 8.20456 20.8531C8.13893 20.4734 8.03112 20.1688 7.628 20.0469C7.54831 20.0234 7.47331 19.9672 7.40768 19.9156C7.27175 19.8031 7.1405 19.8031 6.97643 19.8641C6.03425 20.1922 5.08737 20.5109 4.14518 20.8297C3.45143 21.0641 2.99206 20.8953 2.62643 20.2625C1.95143 19.0953 1.27643 17.9234 0.601435 16.7562C0.226435 16.1094 0.306122 15.6312 0.863935 15.1391C1.45925 14.6141 2.03581 14.0562 2.66862 13.5734C3.14675 13.2078 3.38581 12.8 3.29206 12.1953C3.26862 12.0594 3.24987 11.9516 3.13737 11.8578C2.36862 11.1922 1.60925 10.5219 0.849872 9.85156C0.315497 9.37813 0.23581 8.89062 0.59206 8.27188C1.26706 7.09063 1.94675 5.91406 2.62643 4.7375C2.98737 4.11406 3.44675 3.93594 4.12643 4.16562C4.97487 4.45156 5.828 4.72344 6.67175 5.0375C7.03268 5.17344 7.34675 5.22031 7.65612 4.93906C7.73581 4.86875 7.85768 4.84531 7.93737 4.775C8.01237 4.70937 8.09675 4.625 8.1155 4.53125C8.32175 3.56094 8.528 2.59531 8.70144 1.62031C8.79987 1.05781 9.06706 0.673438 9.6155 0.5C11.2092 0.5 12.803 0.5 14.3967 0.5C14.9499 0.673438 15.2171 1.05781 15.3108 1.62031C15.4561 2.46406 15.653 3.30313 15.803 4.14688C15.8686 4.52188 15.9764 4.82656 16.3796 4.95312C16.4733 4.98125 16.5483 5.075 16.6421 5.10312C16.7499 5.13594 16.8811 5.17344 16.9842 5.14062C17.9405 4.83125 18.8921 4.50312 19.8436 4.18437C20.5702 3.94062 21.0155 4.10469 21.3952 4.76094C22.0655 5.92344 22.7358 7.08594 23.4061 8.24844C23.7811 8.89531 23.7014 9.37344 23.1436 9.86563C22.5483 10.3906 21.9717 10.9484 21.3389 11.4312C20.8608 11.7969 20.6217 12.2047 20.7155 12.8094C20.7389 12.9453 20.7577 13.0531 20.8702 13.1469C21.6389 13.8125 22.3983 14.4828 23.1577 15.1531C23.6921 15.6266 23.7717 16.1141 23.4155 16.7328C22.7358 17.9094 22.0608 19.0859 21.3811 20.2578C21.0202 20.8813 20.5608 21.0594 19.8858 20.8297C19.0374 20.5438 18.1842 20.2719 17.3405 19.9578C16.9796 19.8219 16.6655 19.775 16.3561 20.0563C16.2764 20.1266 16.1546 20.15 16.0749 20.2203C15.9999 20.2859 15.9155 20.3703 15.8967 20.4641C15.6905 21.4344 15.4842 22.4 15.3108 23.375C15.2124 23.9422 14.9452 24.3266 14.3921 24.5ZM12.0108 16.8594C14.4155 16.8547 16.3749 14.8906 16.3655 12.4859C16.3561 10.0906 14.4061 8.14062 12.0108 8.13594C9.60612 8.13125 7.64206 10.0906 7.64206 12.4953C7.64206 14.9047 9.60612 16.8641 12.0108 16.8594Z" fill="white"/>
</g>
<defs>
<clipPath id="clip0_564_701">
<rect width="24" height="24" fill="white" transform="translate(0 0.5)"/>
</clipPath>
</defs>
</svg>
