<svg width="24" height="25" viewBox="0 0 24 25" fill="none" xmlns="http://www.w3.org/2000/svg">
<path d="M11.925 1.93359C14.925 1.93359 17.925 1.93359 20.925 1.93359C22.1484 1.93359 23.0953 2.65078 23.3625 3.78984C23.4141 4.00078 23.4281 4.22109 23.4281 4.44141C23.4328 9.81797 23.4328 15.1898 23.4281 20.5664C23.4281 21.9961 22.4906 22.9852 21.0656 23.0695C20.9859 23.0742 20.9109 23.0742 20.8312 23.0742C14.8875 23.0742 8.93906 23.0742 2.99531 23.0789C2.18438 23.0789 1.49062 22.8398 0.95625 22.2117C0.61875 21.8133 0.421875 21.3539 0.407812 20.8242C0.407812 20.7211 0.403125 20.6227 0.403125 20.5195C0.403125 15.1758 0.407813 9.83203 0.398438 4.48828C0.398438 3.70547 0.628125 3.04922 1.21875 2.52891C1.69687 2.10703 2.26406 1.93359 2.90156 1.93359C5.90625 1.93359 8.91562 1.93359 11.925 1.93359ZM22.4578 6.74766C15.4219 6.74766 8.39531 6.74766 1.35469 6.74766C1.35469 6.83672 1.35469 6.91641 1.35469 6.99141C1.35469 11.5148 1.35469 16.0336 1.35469 20.557C1.35469 21.5086 1.95469 22.1039 2.90625 22.1039C8.91094 22.1039 14.9203 22.1039 20.925 22.1039C21.0422 22.1039 21.1594 22.1039 21.2766 22.0805C22.0219 21.9398 22.4719 21.368 22.4719 20.5477C22.4719 16.0242 22.4719 11.5055 22.4719 6.98203C22.4672 6.91172 22.4625 6.83203 22.4578 6.74766ZM5.18906 4.33828C5.19375 4.08047 4.98281 3.86484 4.725 3.85547C4.4625 3.84609 4.24219 4.04766 4.23281 4.31016C4.21875 4.57266 4.44375 4.80703 4.70625 4.81172C4.96406 4.81172 5.18437 4.59609 5.18906 4.33828ZM6.63281 3.85547C6.37031 3.85547 6.15469 4.06641 6.15 4.32422C6.14531 4.57734 6.36094 4.80234 6.61875 4.81172C6.88594 4.82109 7.11562 4.59609 7.11094 4.32891C7.11094 4.07109 6.89531 3.85547 6.63281 3.85547ZM2.77969 3.85547C2.51719 3.86016 2.30625 4.07578 2.31094 4.33359C2.31562 4.59141 2.53125 4.80703 2.78906 4.81172C3.05156 4.81172 3.28125 4.57734 3.27188 4.31484C3.2625 4.05703 3.04219 3.85078 2.77969 3.85547Z" fill="white"/>
<path d="M8.54147 19.222C5.61647 19.2126 3.26334 16.8407 3.27741 13.9157C3.28678 10.9954 5.66803 8.63761 8.58834 8.65636C11.4899 8.67042 13.8383 11.047 13.8337 13.9626C13.8243 16.8689 11.4477 19.2314 8.54147 19.222ZM6.94303 14.7689C5.75241 13.5548 6.08522 12.0923 6.80709 11.3329C7.65553 10.447 8.99616 10.3251 9.98053 11.0564C10.4727 11.422 10.7821 11.9095 10.8993 12.5048C11.068 13.386 10.7868 14.1314 10.154 14.7642C10.9696 15.1345 11.5883 15.6923 12.043 16.4329C13.2524 14.8345 13.1868 12.322 11.4524 10.7423C9.75553 9.19074 7.13991 9.24699 5.51334 10.8642C3.85397 12.5095 3.91491 14.9657 5.05866 16.4282C5.51334 15.6876 6.13678 15.1345 6.94303 14.7689Z" fill="white"/>
<path d="M17.6574 12.4992C16.898 12.4992 16.1434 12.4992 15.384 12.4992C14.9668 12.4992 14.7934 12.3352 14.7887 11.9273C14.784 11.3508 14.784 10.7742 14.7887 10.193C14.7934 9.78984 14.9574 9.62109 15.3605 9.62109C16.898 9.62109 18.4355 9.62109 19.973 9.62109C20.3762 9.62109 20.5402 9.78984 20.5402 10.193C20.5449 10.7695 20.5449 11.3461 20.5402 11.9273C20.5355 12.3352 20.3668 12.4992 19.9449 12.4992C19.1902 12.4992 18.4215 12.4992 17.6574 12.4992Z" fill="white"/>
<path d="M17.6527 18.2648C16.8934 18.2648 16.1387 18.2648 15.3793 18.2648C14.9621 18.2648 14.7934 18.1008 14.7887 17.6883C14.784 17.1117 14.784 16.5352 14.7887 15.9539C14.7934 15.5508 14.9574 15.3867 15.3652 15.3867C16.9027 15.3867 18.4402 15.3867 19.9777 15.3867C20.3668 15.3867 20.5402 15.5555 20.5402 15.9398C20.5449 16.5352 20.5449 17.1258 20.5402 17.7211C20.5355 18.0914 20.3574 18.2648 19.9918 18.2648C19.2137 18.2648 18.4355 18.2648 17.6527 18.2648Z" fill="white"/>
</svg>
