<svg width="23" height="23" viewBox="0 0 23 23" fill="none" xmlns="http://www.w3.org/2000/svg">
<path fill-rule="evenodd" clip-rule="evenodd" d="M1 6.5C0.447715 6.5 0 6.94772 0 7.5V15.5C0 16.0523 0.447715 16.5 1 16.5H22C22.5523 16.5 23 16.0523 23 15.5V7.5C23 6.94772 22.5523 6.5 22 6.5H1ZM14.8561 10.5573C15.2329 10.1536 15.2111 9.52078 14.8073 9.14394C14.4036 8.76711 13.7708 8.78893 13.3939 9.19268L10.6002 12.186L9.58211 11.1679C9.19158 10.7774 8.55842 10.7774 8.16789 11.1679C7.77737 11.5584 7.77737 12.1916 8.16789 12.5821L9.91789 14.3321C10.1097 14.5239 10.3711 14.6295 10.6422 14.6249C10.9134 14.6202 11.171 14.5056 11.3561 14.3073L14.8561 10.5573Z" fill="#17171D"/>
<rect width="23" height="5" rx="1" fill="#17171D"/>
<rect y="18" width="23" height="5" rx="1" fill="#17171D"/>
</svg>
