<svg width="24" height="24" viewBox="0 0 24 24" fill="none" xmlns="http://www.w3.org/2000/svg">
<path d="M12.1801 1.58203C12.526 1.73461 12.765 1.96348 12.7599 2.3907C13.121 2.3907 13.4618 2.3907 13.8076 2.3907C14.006 2.3907 14.1993 2.38561 14.3976 2.3907C14.835 2.40087 15.1402 2.68569 15.1605 3.12308C15.1758 3.45875 15.1707 3.79951 15.1656 4.14027C15.1605 5.12186 15.191 6.10345 15.1452 7.08504C15.0588 8.90582 14.2654 10.3807 12.8566 11.52C11.9665 12.2422 10.9442 12.6491 9.78464 12.7966C9.78464 12.8627 9.78464 12.9288 9.78464 12.9949C9.78464 14.3325 9.77955 15.6752 9.78464 17.0128C9.79481 18.7065 10.7713 20.0848 12.3632 20.6493C14.362 21.3613 16.6914 20.1407 17.2152 18.086C17.3068 17.7249 17.3576 17.3383 17.3627 16.9671C17.3831 16.0669 17.3678 15.1666 17.3729 14.2664C17.3729 14.124 17.3322 14.0579 17.1949 14.007C16.0099 13.5798 15.2419 12.4355 15.3233 11.2301C15.4097 9.93318 16.2947 8.89565 17.5509 8.621C18.9495 8.31585 20.3889 9.17029 20.811 10.5537C21.2331 11.9472 20.5058 13.4628 19.153 13.9714C18.9394 14.0528 18.8733 14.1444 18.8783 14.3681C18.8936 15.2328 18.8987 16.1025 18.8834 16.9671C18.8377 19.271 17.795 20.9799 15.6894 21.9106C13.6957 22.7905 11.7936 22.465 10.1152 21.0714C9.05226 20.1865 8.46737 19.0167 8.29953 17.6435C8.26902 17.3892 8.26393 17.1298 8.26393 16.8755C8.25885 15.5837 8.25885 14.2919 8.26393 13C8.26393 12.8373 8.22833 12.7762 8.05032 12.7457C6.31092 12.4253 4.95297 11.5149 3.98664 10.0349C3.31529 9.00754 3.02539 7.87337 3.02539 6.65274C3.02539 5.53382 3.02539 4.42 3.02539 3.30109C3.02539 2.6806 3.3102 2.40087 3.93578 2.40087C4.40877 2.40087 4.88177 2.40087 5.37002 2.40087C5.38019 1.97874 5.59889 1.72444 5.96508 1.58203C6.07188 1.58203 6.18377 1.58203 6.29058 1.58203C6.74323 1.74478 6.92124 2.07028 6.89581 2.53819C6.88055 2.90438 6.89581 3.27057 6.89072 3.63167C6.89072 3.79951 6.89072 3.97243 6.85512 4.13518C6.78392 4.48612 6.4635 4.72007 6.09731 4.7099C5.74638 4.69973 5.4514 4.44543 5.39036 4.09958C5.38019 4.03855 5.37002 3.98261 5.35476 3.92157C5.08012 3.92157 4.81056 3.92157 4.53592 3.92157C4.53592 4.84722 4.52066 5.75252 4.54101 6.65782C4.55118 7.1003 4.60204 7.55295 4.70884 7.98017C5.27339 10.2587 7.75025 11.7489 10.0389 11.2148C12.2005 10.7113 13.6245 8.92616 13.6347 6.70868C13.6398 5.84407 13.6347 4.97437 13.6347 4.10975C13.6347 4.04364 13.6296 3.98261 13.6245 3.90632C13.3601 3.90632 13.1159 3.90123 12.8769 3.9114C12.8311 3.9114 12.7599 3.98769 12.7498 4.03855C12.6684 4.48103 12.353 4.74041 11.9258 4.7099C11.5291 4.67938 11.2443 4.35897 11.2392 3.92157C11.2341 3.47401 11.2596 3.02644 11.2341 2.58397C11.2087 2.11097 11.3664 1.77021 11.8089 1.58203C11.936 1.58203 12.0581 1.58203 12.1801 1.58203ZM16.8389 11.3776C16.844 12.0896 17.4339 12.6745 18.1358 12.6593C18.8377 12.644 19.4073 12.0693 19.4124 11.3725C19.4124 10.6656 18.8275 10.0756 18.1256 10.0807C17.4136 10.0807 16.8338 10.6656 16.8389 11.3776Z" fill="white"/>
</svg>
