<svg width="22" height="22" viewBox="0 0 22 22" fill="none" xmlns="http://www.w3.org/2000/svg">
<path d="M0.605508 7.37891C7.54858 7.37891 14.4622 7.37891 21.3993 7.37891C21.3993 7.46739 21.3993 7.54408 21.3993 7.62666C21.3993 11.4551 21.3993 15.2776 21.3993 19.106C21.3993 20.4805 20.4791 21.4007 19.0928 21.4007C13.6953 21.4007 8.29775 21.4007 2.9002 21.4007C1.51985 21.4007 0.599609 20.4805 0.599609 19.1001C0.599609 15.2835 0.599609 11.461 0.599609 7.64436C0.605508 7.55587 0.605508 7.47919 0.605508 7.37891ZM4.07999 9.96265C4.07999 10.8652 4.07999 11.7441 4.07999 12.6231C4.97663 12.6231 5.85558 12.6231 6.74042 12.6231C6.74042 11.7264 6.74042 10.8475 6.74042 9.96265C5.84378 9.96265 4.97074 9.96265 4.07999 9.96265ZM17.9189 12.6349C17.9189 11.7323 17.9189 10.8534 17.9189 9.96855C17.0223 9.96855 16.1375 9.96855 15.2644 9.96855C15.2644 10.8652 15.2644 11.7441 15.2644 12.6349C16.1552 12.6349 17.0282 12.6349 17.9189 12.6349ZM12.3267 9.97445C11.436 9.97445 10.557 9.97445 9.6781 9.97445C9.6781 10.8711 9.6781 11.75 9.6781 12.629C10.5688 12.629 11.4419 12.629 12.3267 12.629C12.3267 11.7382 12.3267 10.8593 12.3267 9.97445ZM6.74042 15.6079C5.84378 15.6079 4.96484 15.6079 4.07409 15.6079C4.07409 16.4987 4.07409 17.3776 4.07409 18.2625C4.97074 18.2625 5.84968 18.2625 6.74042 18.2625C6.74042 17.3717 6.74042 16.4987 6.74042 15.6079ZM17.9248 18.2625C17.9248 17.3717 17.9248 16.4928 17.9248 15.6079C17.0282 15.6079 16.1493 15.6079 15.2644 15.6079C15.2644 16.4987 15.2644 17.3776 15.2644 18.2625C16.1493 18.2625 17.0282 18.2625 17.9248 18.2625ZM9.6722 18.2625C10.5688 18.2625 11.4419 18.2625 12.3267 18.2625C12.3267 17.3717 12.3267 16.4928 12.3267 15.6138C11.436 15.6138 10.557 15.6138 9.6722 15.6138C9.6722 16.4987 9.6722 17.3717 9.6722 18.2625Z" fill="white"/>
<path d="M5.86758 2.75926C5.86758 2.20475 5.86758 1.67975 5.86758 1.15474C5.86758 0.75951 6.02685 0.606137 6.41618 0.606137C6.68163 0.606137 6.94708 0.606137 7.21254 0.606137C7.59007 0.606137 7.74934 0.765409 7.74934 1.14884C7.75524 1.59716 7.74934 2.04548 7.74934 2.4997C7.74934 2.57639 7.74934 2.65897 7.74934 2.74746C9.92016 2.74746 12.0615 2.74746 14.2264 2.74746C14.2323 2.66487 14.2382 2.58229 14.2382 2.5056C14.2382 2.03958 14.2323 1.57947 14.2382 1.11345C14.2441 0.777207 14.4152 0.612036 14.7455 0.606137C15.0405 0.606137 15.3354 0.600238 15.6303 0.606137C15.9489 0.612036 16.12 0.783106 16.12 1.10165C16.1259 1.57357 16.12 2.04548 16.12 2.5174C16.12 2.58819 16.12 2.65897 16.12 2.75926C16.2202 2.75926 16.3028 2.75926 16.3795 2.75926C17.2939 2.75926 18.2082 2.75926 19.1225 2.75926C20.4616 2.76516 21.3818 3.68539 21.3877 5.02446C21.3877 5.44328 21.3877 5.86211 21.3877 6.29273C14.4506 6.29273 7.53698 6.29273 0.570312 6.29273C0.593908 5.66744 0.558515 5.04215 0.664696 4.44046C0.835766 3.44354 1.73831 2.76516 2.78832 2.75926C3.72625 2.75336 4.65829 2.75926 5.59622 2.75926C5.67881 2.75926 5.76139 2.75926 5.86758 2.75926Z" fill="white"/>
</svg>
