<svg width="23" height="23" viewBox="0 0 23 23" fill="none" xmlns="http://www.w3.org/2000/svg">
<path d="M10.0625 4.3125H12.9375C12.9375 3.93125 12.786 3.56562 12.5165 3.29603C12.2469 3.02645 11.8812 2.875 11.5 2.875C11.1188 2.875 10.7531 3.02645 10.4835 3.29603C10.214 3.56562 10.0625 3.93125 10.0625 4.3125ZM8.625 4.3125C8.625 3.55 8.9279 2.81874 9.46707 2.27957C10.0062 1.7404 10.7375 1.4375 11.5 1.4375C12.2625 1.4375 12.9938 1.7404 13.5329 2.27957C14.0721 2.81874 14.375 3.55 14.375 4.3125H20.125C20.3156 4.3125 20.4984 4.38823 20.6332 4.52302C20.768 4.65781 20.8438 4.84063 20.8438 5.03125C20.8438 5.22187 20.768 5.40469 20.6332 5.53948C20.4984 5.67427 20.3156 5.75 20.125 5.75H19.3142L17.5821 18.4546C17.4646 19.3156 17.0391 20.1048 16.3845 20.6762C15.7298 21.2476 14.8903 21.5625 14.0214 21.5625H8.97862C8.10968 21.5625 7.27017 21.2476 6.61552 20.6762C5.96087 20.1048 5.53542 19.3156 5.41794 18.4546L3.68575 5.75H2.875C2.68438 5.75 2.50156 5.67427 2.36677 5.53948C2.23198 5.40469 2.15625 5.22187 2.15625 5.03125C2.15625 4.84063 2.23198 4.65781 2.36677 4.52302C2.50156 4.38823 2.68438 4.3125 2.875 4.3125H8.625ZM10.0625 9.34375C10.0625 9.15313 9.98677 8.97031 9.85198 8.83552C9.71719 8.70073 9.53437 8.625 9.34375 8.625C9.15313 8.625 8.97031 8.70073 8.83552 8.83552C8.70073 8.97031 8.625 9.15313 8.625 9.34375V16.5312C8.625 16.7219 8.70073 16.9047 8.83552 17.0395C8.97031 17.1743 9.15313 17.25 9.34375 17.25C9.53437 17.25 9.71719 17.1743 9.85198 17.0395C9.98677 16.9047 10.0625 16.7219 10.0625 16.5312V9.34375ZM13.6562 8.625C13.4656 8.625 13.2828 8.70073 13.148 8.83552C13.0132 8.97031 12.9375 9.15313 12.9375 9.34375V16.5312C12.9375 16.7219 13.0132 16.9047 13.148 17.0395C13.2828 17.1743 13.4656 17.25 13.6562 17.25C13.8469 17.25 14.0297 17.1743 14.1645 17.0395C14.2993 16.9047 14.375 16.7219 14.375 16.5312V9.34375C14.375 9.15313 14.2993 8.97031 14.1645 8.83552C14.0297 8.70073 13.8469 8.625 13.6562 8.625Z" fill="#17171D"/>
</svg>
