<svg width="23" height="23" viewBox="0 0 23 23" fill="none" xmlns="http://www.w3.org/2000/svg">
<g clip-path="url(#clip0_1426_4779)">
<path d="M2.69739 14.821L1.4835 20.0599C1.44163 20.2514 1.44306 20.4499 1.4877 20.6407C1.53234 20.8316 1.61906 21.0101 1.74153 21.1632C1.86399 21.3163 2.0191 21.4401 2.19553 21.5255C2.37196 21.611 2.56525 21.6559 2.76128 21.6571C2.85262 21.6663 2.94466 21.6663 3.036 21.6571L8.30684 20.4432L18.4268 10.3616L12.7791 4.72656L2.69739 14.821Z" fill="#17171D"/>
<path d="M21.6075 5.31459L17.8381 1.54514C17.5902 1.29857 17.2549 1.16016 16.9053 1.16016C16.5557 1.16016 16.2203 1.29857 15.9725 1.54514L13.877 3.6407L19.5183 9.28209L21.6139 7.18653C21.7365 7.06328 21.8337 6.91705 21.8997 6.75622C21.9658 6.59538 21.9995 6.4231 21.9989 6.24923C21.9983 6.07537 21.9634 5.90332 21.8963 5.74294C21.8291 5.58256 21.731 5.437 21.6075 5.31459Z" fill="#17171D"/>
</g>
<defs>
<clipPath id="clip0_1426_4779">
<rect width="23" height="23" fill="white"/>
</clipPath>
</defs>
</svg>
