<svg width="25" height="25" viewBox="0 0 25 25" fill="none" xmlns="http://www.w3.org/2000/svg">
<g clip-path="url(#clip0_496_651)">
<path d="M18.8755 18.5377C17.1661 19.8407 15.0847 20.5625 12.9355 20.5977C5.93555 20.5977 1.93555 12.5977 1.93555 12.5977C3.17944 10.2796 4.90468 8.25429 6.99555 6.65768M10.8355 4.83768C11.5239 4.67656 12.2286 4.59602 12.9355 4.59768C19.9355 4.59768 23.9355 12.5977 23.9355 12.5977C23.3285 13.7333 22.6046 14.8024 21.7755 15.7877M15.0555 14.7177C14.7809 15.0124 14.4497 15.2488 14.0817 15.4128C13.7137 15.5768 13.3164 15.6649 12.9136 15.672C12.5108 15.6792 12.1107 15.6051 11.7372 15.4542C11.3636 15.3033 11.0243 15.0787 10.7394 14.7938C10.4545 14.509 10.2299 14.1696 10.0791 13.7961C9.92817 13.4225 9.85407 13.0224 9.86118 12.6196C9.86829 12.2168 9.95646 11.8195 10.1204 11.4515C10.2844 11.0835 10.5208 10.7523 10.8155 10.4777" stroke="#17171D" stroke-width="2" stroke-linecap="round" stroke-linejoin="round"/>
<path d="M1.93555 1.59766L23.9355 23.5977" stroke="#17171D" stroke-width="2" stroke-linecap="round" stroke-linejoin="round"/>
</g>
<defs>
<clipPath id="clip0_496_651">
<rect width="24" height="24" fill="white" transform="translate(0.935547 0.597656)"/>
</clipPath>
</defs>
</svg>
