<svg width="23" height="23" viewBox="0 0 23 23" fill="none" xmlns="http://www.w3.org/2000/svg">
<path d="M14.4191 16.1602C14.677 16.1602 14.9245 16.2654 15.1069 16.4527C15.2893 16.64 15.3918 16.894 15.3918 17.1589C15.3918 17.4238 15.2893 17.6778 15.1069 17.8651C14.9245 18.0524 14.677 18.1576 14.4191 18.1576H8.58259C8.3246 18.1576 8.07718 18.0524 7.89475 17.8651C7.71233 17.6778 7.60984 17.4238 7.60984 17.1589C7.60984 16.894 7.71233 16.64 7.89475 16.4527C8.07718 16.2654 8.3246 16.1602 8.58259 16.1602H14.4191ZM17.013 10.501C17.271 10.501 17.5184 10.6062 17.7009 10.7935C17.8833 10.9808 17.9858 11.2348 17.9858 11.4997C17.9858 11.7646 17.8833 12.0186 17.7009 12.2059C17.5184 12.3932 17.271 12.4984 17.013 12.4984H5.9886C5.73062 12.4984 5.48319 12.3932 5.30077 12.2059C5.11835 12.0186 5.01586 11.7646 5.01586 11.4997C5.01586 11.2348 5.11835 10.9808 5.30077 10.7935C5.48319 10.6062 5.73062 10.501 5.9886 10.501H17.013ZM19.607 4.8418C19.865 4.8418 20.1124 4.94701 20.2949 5.1343C20.4773 5.32159 20.5798 5.57561 20.5798 5.84048C20.5798 6.10535 20.4773 6.35937 20.2949 6.54666C20.1124 6.73395 19.865 6.83917 19.607 6.83917H3.39462C3.13663 6.83917 2.88921 6.73395 2.70679 6.54666C2.52436 6.35937 2.42188 6.10535 2.42188 5.84048C2.42188 5.57561 2.52436 5.32159 2.70679 5.1343C2.88921 4.94701 3.13663 4.8418 3.39462 4.8418H19.607Z" fill="white"/>
</svg>
