<svg width="26" height="26" viewBox="0 0 26 26" fill="none" xmlns="http://www.w3.org/2000/svg">
<rect width="26" height="26" rx="5" fill="#0084CF"/>
<path d="M14.5 20.5039C14.5 19.6706 14.5 18.8581 14.5 18.0456C14.5 17.9331 14.5042 17.8164 14.525 17.7039C14.6458 17.0039 15.225 16.5081 15.9333 16.5039C16.725 16.4997 17.5167 16.5039 18.3083 16.5039C18.3667 16.5039 18.4208 16.5039 18.5 16.5039C18.5 16.4414 18.5 16.3872 18.5 16.3289C18.5 13.2456 18.5 10.1622 18.5 7.07891C18.5 6.14141 17.8583 5.49974 16.9208 5.49974C14.3083 5.49974 11.6917 5.49974 9.07917 5.49974C8.14167 5.49974 7.5 6.14141 7.5 7.07891C7.5 11.0289 7.5 14.9747 7.5 18.9247C7.5 19.8622 8.14167 20.5039 9.07917 20.5039C10.8292 20.5039 12.5792 20.5039 14.3292 20.5039C14.3792 20.5039 14.4292 20.5039 14.5 20.5039ZM13.0042 14.0039C12.175 14.0039 11.3458 14.0039 10.5208 14.0039C10.2167 14.0039 9.99583 13.7872 9.99583 13.4997C9.99583 13.2206 10.2167 13.0039 10.5125 13.0039C12.1708 13.0039 13.825 12.9997 15.4833 13.0081C15.5833 13.0081 15.6917 13.0456 15.775 13.0956C15.9625 13.2081 16.0375 13.4372 15.9792 13.6414C15.9125 13.8622 15.7292 14.0039 15.4917 14.0039C14.6625 14.0039 13.8333 14.0039 13.0042 14.0039ZM12.9917 10.4997C13.8167 10.4997 14.6375 10.4997 15.4625 10.4997C15.6958 10.4997 15.8667 10.5956 15.9625 10.8081C16.1125 11.1456 15.8583 11.4997 15.4708 11.4997C14.575 11.5039 13.6792 11.4997 12.7833 11.4997C12.0333 11.4997 11.2833 11.4997 10.5333 11.4997C10.3083 11.4997 10.1375 11.4039 10.0458 11.1997C9.89167 10.8622 10.1417 10.4997 10.525 10.4997C11.3458 10.4997 12.1667 10.4997 12.9917 10.4997ZM13.0042 8.99974C12.175 8.99974 11.3458 8.99974 10.5208 8.99974C10.2167 8.99974 9.99583 8.78307 9.99583 8.49557C9.99583 8.2164 10.2167 7.99974 10.5125 7.99974C12.1708 7.99974 13.825 7.99557 15.4833 8.00391C15.5833 8.00391 15.6917 8.04141 15.775 8.09141C15.9625 8.20391 16.0375 8.43307 15.9792 8.63724C15.9125 8.85807 15.7292 8.99974 15.4917 8.99974C14.6625 8.99974 13.8333 8.99974 13.0042 8.99974Z" fill="white"/>
<path d="M15.5 20.1582C16.3875 19.2749 17.2667 18.3915 18.1542 17.504C18.1208 17.504 18.075 17.504 18.0292 17.504C17.3583 17.504 16.6875 17.504 16.0167 17.504C15.6667 17.504 15.5 17.6707 15.5 18.0207C15.5 18.6915 15.5 19.3624 15.5 20.0374C15.5 20.079 15.5 20.1249 15.5 20.1582Z" fill="white"/>
</svg>
