<svg width="305" height="272" viewBox="0 0 305 272" fill="none" xmlns="http://www.w3.org/2000/svg">
<rect x="0.5" y="0.5" width="304" height="270" rx="4.5" stroke="#17171D" stroke-opacity="0.2"/>
<rect width="305" height="272" rx="5" fill="#D9D9D9"/>
<path d="M152 31C162.384 31 172.534 34.0791 181.167 39.8478C189.801 45.6166 196.53 53.816 200.504 63.4091C204.477 73.0022 205.517 83.5582 203.491 93.7422C201.466 103.926 196.465 113.281 189.123 120.623C181.781 127.965 172.426 132.966 162.242 134.991C152.058 137.017 141.502 135.977 131.909 132.004C122.316 128.03 114.117 121.301 108.348 112.667C102.579 104.034 99.5 93.8835 99.5 83.5L99.5525 81.2215C100.14 67.7054 105.922 54.9377 115.693 45.5809C125.465 36.2242 138.471 31.0008 152 31ZM173 157C186.924 157 200.277 162.531 210.123 172.377C219.969 182.223 225.5 195.576 225.5 209.5V220C225.5 225.57 223.288 230.911 219.349 234.849C215.411 238.788 210.07 241 204.5 241H99.5C93.9305 241 88.589 238.788 84.6508 234.849C80.7125 230.911 78.5 225.57 78.5 220V209.5C78.5 195.576 84.0312 182.223 93.8769 172.377C103.723 162.531 117.076 157 131 157H173Z" fill="#17171D"/>
<rect x="44" y="209" width="217" height="43" rx="21.5" fill="white"/>
<path d="M89.136 224.8H91.424V232.176C91.424 232.816 91.5893 233.333 91.92 233.728C92.2613 234.112 92.7627 234.304 93.424 234.304C94.0853 234.304 94.5813 234.112 94.912 233.728C95.2533 233.333 95.424 232.816 95.424 232.176V224.8H97.712V232.32C97.712 232.981 97.6053 233.563 97.392 234.064C97.1787 234.565 96.8747 234.987 96.48 235.328C96.096 235.669 95.6427 235.925 95.12 236.096C94.5973 236.277 94.032 236.368 93.424 236.368C92.8053 236.368 92.2347 236.277 91.712 236.096C91.1893 235.925 90.736 235.669 90.352 235.328C89.968 234.987 89.6693 234.565 89.456 234.064C89.2427 233.563 89.136 232.981 89.136 232.32V224.8ZM100.044 224.8H102.332V236H100.044V224.8ZM101.436 226.736V224.8H103.66C104.545 224.8 105.297 224.944 105.916 225.232C106.545 225.52 107.025 225.931 107.356 226.464C107.687 226.997 107.852 227.632 107.852 228.368C107.852 229.093 107.687 229.728 107.356 230.272C107.025 230.805 106.545 231.216 105.916 231.504C105.297 231.792 104.545 231.936 103.66 231.936H101.436V230H103.66C104.268 230 104.748 229.861 105.1 229.584C105.452 229.307 105.628 228.901 105.628 228.368C105.628 227.824 105.452 227.419 105.1 227.152C104.748 226.875 104.268 226.736 103.66 226.736H101.436ZM109.622 224.8H111.958V236H109.622V224.8ZM113.43 236H111.094V233.92H113.35C113.841 233.92 114.305 233.856 114.742 233.728C115.18 233.589 115.564 233.376 115.894 233.088C116.225 232.8 116.481 232.437 116.662 232C116.854 231.552 116.95 231.019 116.95 230.4C116.95 229.781 116.854 229.253 116.662 228.816C116.481 228.368 116.225 228 115.894 227.712C115.564 227.424 115.18 227.216 114.742 227.088C114.305 226.949 113.841 226.88 113.35 226.88H111.094V224.8H113.43C114.604 224.8 115.628 225.029 116.502 225.488C117.388 225.947 118.076 226.597 118.566 227.44C119.057 228.272 119.302 229.259 119.302 230.4C119.302 231.541 119.057 232.533 118.566 233.376C118.076 234.208 117.388 234.853 116.502 235.312C115.628 235.771 114.604 236 113.43 236ZM122.143 233.456L122.415 231.648H127.791L128.063 233.456H122.143ZM125.071 228.432L123.391 232.288L123.439 232.8L121.967 236H119.391L125.071 224.144L130.751 236H128.159L126.719 232.896L126.751 232.32L125.071 228.432ZM129.721 226.864V224.8H138.041V226.864H135.017V236H132.729V226.864H129.721ZM140.813 236V234.064H146.461V236H140.813ZM140.813 226.736V224.8H146.461V226.736H140.813ZM140.813 231.008V229.104H146.141V231.008H140.813ZM139.341 224.8H141.549V236H139.341V224.8ZM153.513 224.8H155.801V236H153.513V224.8ZM154.905 226.736V224.8H157.129C158.014 224.8 158.766 224.944 159.385 225.232C160.014 225.52 160.494 225.931 160.825 226.464C161.156 226.997 161.321 227.632 161.321 228.368C161.321 229.093 161.156 229.728 160.825 230.272C160.494 230.805 160.014 231.216 159.385 231.504C158.766 231.792 158.014 231.936 157.129 231.936H154.905V230H157.129C157.737 230 158.217 229.861 158.569 229.584C158.921 229.307 159.097 228.901 159.097 228.368C159.097 227.824 158.921 227.419 158.569 227.152C158.217 226.875 157.737 226.736 157.129 226.736H154.905ZM165.635 230.784H168.051L171.699 236H168.995L165.635 230.784ZM163.091 224.8H165.379V236H163.091V224.8ZM164.483 226.752V224.8H166.851C167.736 224.8 168.488 224.949 169.107 225.248C169.726 225.547 170.2 225.963 170.531 226.496C170.862 227.029 171.027 227.653 171.027 228.368C171.027 229.072 170.862 229.696 170.531 230.24C170.2 230.773 169.726 231.189 169.107 231.488C168.488 231.787 167.736 231.936 166.851 231.936H164.483V230.112H166.707C167.112 230.112 167.459 230.048 167.747 229.92C168.046 229.781 168.275 229.589 168.435 229.344C168.595 229.088 168.675 228.784 168.675 228.432C168.675 228.08 168.595 227.781 168.435 227.536C168.275 227.28 168.046 227.088 167.747 226.96C167.459 226.821 167.112 226.752 166.707 226.752H164.483ZM174.789 230.4C174.789 231.115 174.938 231.749 175.237 232.304C175.536 232.859 175.946 233.296 176.469 233.616C176.992 233.936 177.6 234.096 178.293 234.096C178.986 234.096 179.594 233.936 180.117 233.616C180.64 233.296 181.045 232.859 181.333 232.304C181.632 231.749 181.781 231.115 181.781 230.4C181.781 229.685 181.637 229.051 181.349 228.496C181.061 227.941 180.656 227.504 180.133 227.184C179.61 226.864 178.997 226.704 178.293 226.704C177.6 226.704 176.992 226.864 176.469 227.184C175.946 227.504 175.536 227.941 175.237 228.496C174.938 229.051 174.789 229.685 174.789 230.4ZM172.373 230.4C172.373 229.547 172.522 228.768 172.821 228.064C173.12 227.349 173.536 226.731 174.069 226.208C174.602 225.685 175.226 225.285 175.941 225.008C176.666 224.72 177.45 224.576 178.293 224.576C179.146 224.576 179.93 224.72 180.645 225.008C181.36 225.285 181.984 225.685 182.517 226.208C183.061 226.731 183.477 227.349 183.765 228.064C184.064 228.768 184.213 229.547 184.213 230.4C184.213 231.243 184.064 232.027 183.765 232.752C183.477 233.467 183.066 234.091 182.533 234.624C182.01 235.157 181.386 235.573 180.661 235.872C179.946 236.16 179.157 236.304 178.293 236.304C177.429 236.304 176.634 236.16 175.909 235.872C175.194 235.573 174.57 235.157 174.037 234.624C173.504 234.091 173.093 233.467 172.805 232.752C172.517 232.027 172.373 231.243 172.373 230.4ZM187.454 226.8V224.8H192.462V226.8H187.454ZM187.454 231.216V229.312H192.302V231.216H187.454ZM185.982 224.8H188.19V236H185.982V224.8ZM194.56 224.8H196.88V236H194.56V224.8ZM199.294 224.8H201.582V234H206.046V236H199.294V224.8ZM208.829 236V234.064H214.477V236H208.829ZM208.829 226.736V224.8H214.477V226.736H208.829ZM208.829 231.008V229.104H214.157V231.008H208.829ZM207.357 224.8H209.565V236H207.357V224.8Z" fill="#17171D"/>
</svg>
