<svg width="24" height="24" viewBox="0 0 24 24" fill="none" xmlns="http://www.w3.org/2000/svg">
<path d="M0.821266 20.3634C0.526912 16.86 2.55276 13.6567 5.79065 12.4389C6.02151 12.3523 6.2062 12.3465 6.44284 12.4504C7.79918 13.0449 9.16706 13.0276 10.5292 12.4389C10.6677 12.3812 10.8755 12.3581 11.0082 12.41C13.9402 13.547 15.6313 15.671 16.0526 18.7935C16.0815 18.9955 16.093 19.1917 16.1161 19.3937C17.888 19.6592 19.1866 18.8916 19.5329 17.3563C19.5791 17.1543 19.5791 16.935 19.5791 16.7272C19.5849 15.5729 19.5733 14.4186 19.5849 13.2642C19.5849 13.0507 19.5156 12.9353 19.3251 12.8487C18.9962 12.6928 18.6729 12.5139 18.3613 12.3235C17.4436 11.7636 16.9126 10.944 16.8953 9.85897C16.8722 8.09862 16.8837 6.33827 16.8895 4.57792C16.8895 4.01807 17.2762 3.63714 17.8418 3.63714C19.3021 3.63137 20.7681 3.63137 22.2283 3.63714C22.7997 3.63714 23.1921 4.03538 23.1921 4.60101C23.1979 6.34404 23.2095 8.0813 23.1864 9.82434C23.1691 10.8921 22.6785 11.7232 21.7723 12.2888C21.4491 12.4908 21.1086 12.6755 20.7623 12.8429C20.566 12.941 20.491 13.0565 20.491 13.2816C20.5026 14.4359 20.5026 15.5902 20.4968 16.7445C20.491 18.8512 18.9788 20.3576 16.8722 20.3634C11.62 20.3634 6.36781 20.3634 1.10985 20.3634C1.02904 20.3634 0.936699 20.3634 0.821266 20.3634ZM19.5791 8.42183C19.5791 8.82007 19.5502 9.18369 19.5906 9.52998C19.6137 9.68582 19.758 9.8936 19.9023 9.95131C20.0293 10.0033 20.2486 9.91668 20.3813 9.82434C20.4622 9.76662 20.4852 9.5877 20.491 9.46073C20.5026 9.1202 20.4968 8.77967 20.4968 8.45069C20.566 8.43337 20.5891 8.4276 20.6064 8.4276C20.9066 8.4276 21.2009 8.4276 21.501 8.42183C21.8704 8.42183 22.0724 8.25445 22.0724 7.96587C22.0724 7.67729 21.8589 7.50414 21.4953 7.50414C21.1721 7.49837 20.8489 7.50414 20.4968 7.50414C20.4968 7.12321 20.4968 6.78269 20.4968 6.43639C20.4968 6.19398 20.3929 6.0266 20.1678 5.95157C19.8677 5.85922 19.5906 6.07855 19.5791 6.43639C19.5675 6.77691 19.5791 7.12321 19.5791 7.49837C19.2039 7.49837 18.8634 7.4926 18.5171 7.49837C18.2054 7.50414 18.0034 7.70038 18.0092 7.97164C18.015 8.24291 18.2112 8.41606 18.5344 8.42183C18.8692 8.4276 19.2039 8.42183 19.5791 8.42183Z" fill="white"/>
<path d="M12.4793 7.92548C12.485 10.1649 10.6901 11.9599 8.45067 11.9599C6.22282 11.9541 4.43361 10.1706 4.43361 7.94279C4.42784 5.71494 6.21127 3.91996 8.43335 3.91419C10.6727 3.89687 12.4735 5.68608 12.4793 7.92548Z" fill="white"/>
</svg>
