<svg width="23" height="23" viewBox="0 0 23 23" fill="none" xmlns="http://www.w3.org/2000/svg">
<path d="M5.39062 23C5.22292 23 5.0612 23 4.89948 23C4.47422 22.8742 4.18073 22.5807 3.87526 22.2753C2.82708 21.2211 1.77891 20.1729 0.72474 19.1247C0.419271 18.8253 0.125781 18.5258 0 18.1005C0 17.9328 0 17.7711 0 17.6094C0.101823 17.2081 0.359375 16.9146 0.640885 16.6331C5.97161 11.3083 11.3023 5.9776 16.6331 0.640885C16.9146 0.353385 17.2081 0.101823 17.6094 0C17.7771 0 17.9388 0 18.1005 0C18.5258 0.125781 18.8253 0.419271 19.1247 0.72474C20.1729 1.77891 21.2211 2.82708 22.2753 3.87526C22.5807 4.17474 22.8742 4.47422 23 4.89948C23 5.06719 23 5.22891 23 5.39062C22.8982 5.77396 22.6646 6.06146 22.3891 6.33698C17.0523 11.6677 11.7156 17.0044 6.3849 22.3411C6.09141 22.6286 5.79792 22.8922 5.39062 23ZM10.2661 10.3201C9.80495 10.3081 9.39766 10.4638 9.06224 10.7812C8.79271 11.0328 8.53516 11.2904 8.2776 11.5539C8.06797 11.7695 8.06198 12.0151 8.27162 12.2307C9.09818 13.0633 9.93672 13.8898 10.7693 14.7164C10.9969 14.938 11.2305 14.938 11.4581 14.7104C11.6977 14.4768 11.9552 14.2492 12.1648 13.9857C12.3326 13.776 12.4943 13.5305 12.5781 13.2789C12.9794 11.9852 11.6917 10.344 10.2661 10.3201ZM11.7695 8.31354C11.7755 8.34948 11.7875 8.42135 11.8174 8.48724C12.3266 9.63125 12.8417 10.7812 13.3568 11.9253C13.4706 12.1828 13.7161 12.2727 13.9497 12.1708C14.1833 12.069 14.2792 11.8234 14.1773 11.5659C14.1174 11.4102 14.0336 11.2664 13.9797 11.1167C13.9617 11.0568 13.9797 10.9549 14.0156 10.913C14.3091 10.6016 14.6086 10.3021 14.9201 10.0086C14.968 9.96667 15.0818 9.95469 15.1477 9.97266C15.3094 10.0266 15.4591 10.1164 15.6208 10.1763C15.8544 10.2602 16.088 10.1523 16.1839 9.93672C16.2737 9.72708 16.2018 9.49948 15.9982 9.3737C15.9323 9.33177 15.8664 9.30781 15.8005 9.27188C15.0878 8.94844 14.369 8.625 13.6562 8.30156C13.2789 8.13385 12.9076 7.95417 12.5302 7.79844C12.1529 7.64271 11.7695 7.88229 11.7695 8.31354ZM5.64818 19.7716C6.39089 19.7716 7.00781 19.3643 7.28932 18.6935C7.58281 17.9807 7.45703 17.3937 6.88203 16.8187C6.80417 16.7409 6.7263 16.657 6.64245 16.5792C6.19323 16.1299 5.74401 15.6747 5.29479 15.2315C5.04323 14.9799 4.68385 15.0279 4.5401 15.3154C4.43229 15.537 4.51016 15.7167 4.67188 15.8784C5.21693 16.4234 5.76198 16.9625 6.30104 17.5135C6.39088 17.6034 6.47474 17.7232 6.51068 17.849C6.60052 18.1784 6.40286 18.5857 6.08542 18.7654C5.75599 18.951 5.43255 18.9031 5.15104 18.6216C4.60599 18.0766 4.06094 17.5315 3.51589 16.9865C3.31224 16.7828 3.03672 16.7768 2.85703 16.9565C2.67734 17.1362 2.67734 17.4117 2.88099 17.6154C3.46198 18.2023 4.04297 18.7833 4.62995 19.3583C4.91745 19.6458 5.25885 19.7776 5.64818 19.7716ZM8.08594 15.8305C8.24167 15.6927 8.38542 15.5789 8.5112 15.4531C9.09818 14.8422 9.09219 13.9258 8.5112 13.3568C7.93021 12.7937 7.03776 12.8117 6.43281 13.3987C6.21719 13.6083 6.00755 13.818 5.79792 14.0336C5.54036 14.2971 5.53438 14.5307 5.79792 14.7883C6.60052 15.5909 7.40313 16.3995 8.21172 17.2021C8.4513 17.4417 8.72682 17.4596 8.91849 17.262C9.10417 17.0703 9.08021 16.8008 8.84661 16.5672C8.60703 16.3276 8.36146 16.1 8.08594 15.8305ZM16.8727 4.21068C17.0883 3.99505 17.3279 3.76745 17.5555 3.53385C17.7771 3.30625 17.7951 3.05469 17.6034 2.85703C17.4177 2.67135 17.1422 2.68333 16.9266 2.89297C16.5971 3.21641 16.2677 3.54583 15.9443 3.87526C15.6987 4.12083 15.6987 4.35443 15.9443 4.6C16.7648 5.42057 17.5854 6.24115 18.406 7.06172C18.6336 7.28932 18.8732 7.29531 19.0948 7.0737C19.4422 6.73229 19.7896 6.39089 20.125 6.0375C20.1909 5.97161 20.2388 5.87578 20.2568 5.78594C20.2987 5.58229 20.2208 5.41458 20.0352 5.31276C19.8375 5.20495 19.6518 5.24687 19.5021 5.39661C19.2565 5.64219 19.0169 5.89375 18.8133 6.0974C18.5737 5.86979 18.3641 5.67214 18.1424 5.4625C18.3341 5.27682 18.5378 5.08516 18.7294 4.89349C18.957 4.6599 18.981 4.39036 18.7953 4.1987C18.6036 4.00703 18.3341 4.025 18.1005 4.2526C17.9029 4.45026 17.7112 4.6599 17.5255 4.85755C17.2979 4.63594 17.0943 4.43229 16.8727 4.21068ZM15.0339 6.04349C15.1716 5.91172 15.2974 5.80391 15.4112 5.68411C15.6029 5.48646 15.6089 5.21693 15.4352 5.03724C15.2555 4.84557 14.9859 4.84557 14.7763 5.04922C14.3151 5.49844 13.8599 5.95365 13.4107 6.41484C13.213 6.61849 13.207 6.87005 13.3867 7.05573C13.5664 7.24141 13.8419 7.24141 14.0456 7.03776C14.1654 6.92396 14.2612 6.79219 14.381 6.66641C14.4708 6.75625 14.5307 6.81016 14.5906 6.86406C15.2315 7.50495 15.8724 8.14583 16.5133 8.78672C16.5792 8.8526 16.6391 8.91849 16.7109 8.96641C16.8786 9.07422 17.1062 9.05026 17.25 8.91849C17.3997 8.78073 17.4357 8.54115 17.3279 8.36146C17.2799 8.28958 17.2141 8.2237 17.1542 8.15781C16.4594 7.46302 15.7586 6.76224 15.0339 6.04349Z" fill="#17171D"/>
<path d="M10.7812 0C11.2604 0 11.7396 0 12.2188 0C12.656 0.0598958 13.0932 0.101823 13.5245 0.185677C13.9677 0.263542 14.4049 0.377344 14.8542 0.479167C14.8242 0.533073 14.8242 0.551042 14.8122 0.563021C13.9737 1.40755 13.1292 2.24609 12.2846 3.08464C12.2367 3.13255 12.1409 3.16849 12.069 3.1625C10.35 3.06068 8.72083 3.40208 7.25938 4.3125C4.41432 6.08542 3.05469 8.67292 3.15651 12.0271C3.1625 12.1289 3.10859 12.2607 3.03672 12.3326C2.24609 13.1411 1.44349 13.9378 0.640885 14.7344C0.604948 14.7703 0.557031 14.8062 0.479167 14.8721C0.371354 14.399 0.263542 13.9677 0.179688 13.5305C0.107813 13.0932 0.0598958 12.656 0 12.2188C0 11.7396 0 11.2604 0 10.7812C0.0359375 10.5057 0.0598958 10.2362 0.101823 9.96068C0.43125 7.62474 1.37161 5.55833 2.95885 3.80937C4.73776 1.85078 6.92995 0.622917 9.5474 0.173698C9.95469 0.101823 10.368 0.0598958 10.7812 0Z" fill="#17171D"/>
<path d="M23.0005 10.8301C23.0005 11.2973 23.0005 11.7585 23.0005 12.2197C22.9465 12.6329 22.8986 13.0462 22.8268 13.4595C22.0062 18.2392 18.2747 21.9827 13.477 22.8272C13.0577 22.8991 12.6385 22.947 12.2132 23.0009C11.746 23.0009 11.2848 23.0009 10.8236 23.0009C10.3744 22.941 9.91921 22.8991 9.46999 22.8152C9.02676 22.7374 8.58952 22.6176 8.11035 22.5098C9.00879 21.6113 9.8653 20.7488 10.7278 19.8983C10.7757 19.8504 10.8775 19.8324 10.9494 19.8384C11.9317 19.8983 12.89 19.7965 13.8364 19.521C17.5919 18.4249 20.0895 14.8551 19.8439 10.9499C19.838 10.854 19.8979 10.7342 19.9637 10.6684C20.7544 9.86576 21.557 9.06914 22.3596 8.26654C22.3955 8.2306 22.4434 8.19466 22.5213 8.13477C22.6291 8.60794 22.7429 9.03919 22.8208 9.48242C22.8986 9.92565 22.9406 10.3749 23.0005 10.8301Z" fill="#17171D"/>
<path d="M10.2666 10.321C11.6921 10.3509 12.9858 11.9861 12.5785 13.2798C12.5007 13.5374 12.339 13.7769 12.1653 13.9866C11.9556 14.2501 11.7041 14.4777 11.4585 14.7113C11.2309 14.9329 10.9913 14.9389 10.7697 14.7173C9.93115 13.8907 9.0986 13.0642 8.27204 12.2316C8.05641 12.016 8.0624 11.7764 8.27803 11.5548C8.53558 11.2913 8.79313 11.0277 9.06266 10.7822C9.39808 10.4647 9.79938 10.309 10.2666 10.321ZM11.1111 13.771C11.2429 13.6392 11.3687 13.5254 11.4884 13.3996C11.77 13.1121 11.8358 12.7767 11.6981 12.4113C11.4884 11.8663 11.1051 11.4829 10.5601 11.2793C10.2067 11.1475 9.88323 11.2194 9.60771 11.4829C9.47594 11.6147 9.33818 11.7405 9.2124 11.8603C9.85928 12.5072 10.4822 13.1361 11.1111 13.771Z" fill="white"/>
<path d="M11.7695 8.3132C11.7695 7.88195 12.1529 7.63638 12.5362 7.7981C12.9135 7.95982 13.2849 8.13351 13.6622 8.30122C14.375 8.62466 15.0937 8.9481 15.8065 9.27154C15.8724 9.30148 15.9443 9.33143 16.0042 9.37336C16.2078 9.49914 16.2797 9.72674 16.1898 9.93638C16.094 10.152 15.8604 10.2598 15.6268 10.176C15.4651 10.1161 15.3154 10.0262 15.1536 9.97232C15.0878 9.94836 14.974 9.96034 14.926 10.0083C14.6146 10.3017 14.3151 10.6012 14.0216 10.9127C13.9797 10.9546 13.9617 11.0624 13.9857 11.1163C14.0396 11.2721 14.1234 11.4158 14.1833 11.5655C14.2852 11.8231 14.1893 12.0687 13.9557 12.1705C13.7221 12.2723 13.4766 12.1825 13.3628 11.9249C12.8477 10.7809 12.3326 9.6369 11.8234 8.4869C11.7875 8.427 11.7815 8.34914 11.7695 8.3132ZM14.1294 9.50513C13.7641 9.34341 13.4286 9.18768 13.0333 9.00799C13.213 9.4093 13.3687 9.75669 13.5185 10.0861C13.7221 9.89445 13.9138 9.70877 14.1294 9.50513Z" fill="white"/>
<path d="M5.64791 19.7709C5.25259 19.7769 4.91119 19.6451 4.63567 19.3696C4.04869 18.7886 3.4677 18.2136 2.88671 17.6266C2.68306 17.417 2.67707 17.1475 2.86275 16.9678C3.04244 16.7881 3.31796 16.7941 3.5216 16.9977C4.07264 17.5368 4.61171 18.0878 5.15676 18.6329C5.43827 18.9084 5.76171 18.9623 6.09113 18.7766C6.40259 18.5969 6.60624 18.1897 6.51639 17.8602C6.48046 17.7404 6.3966 17.6206 6.30676 17.5248C5.7677 16.9738 5.22264 16.4287 4.67759 15.8897C4.51587 15.7279 4.43801 15.5423 4.54582 15.3266C4.68358 15.0391 5.04296 14.9972 5.30051 15.2428C5.75572 15.686 6.19895 16.1412 6.64817 16.5904C6.72603 16.6683 6.80389 16.7522 6.88775 16.83C7.46275 17.405 7.58853 17.992 7.29504 18.7048C7.01353 19.3636 6.39061 19.7709 5.64791 19.7709Z" fill="white"/>
<path d="M8.08611 15.8296C8.36163 16.0991 8.6072 16.3267 8.84079 16.5663C9.07439 16.7999 9.09835 17.0634 8.91267 17.2611C8.721 17.4588 8.44548 17.4408 8.2059 17.2012C7.40329 16.3986 6.5947 15.596 5.7921 14.7874C5.52855 14.5239 5.53454 14.2963 5.7921 14.0327C6.00173 13.8171 6.21137 13.6075 6.42699 13.3978C7.03194 12.8108 7.92439 12.7929 8.50538 13.3559C9.08637 13.9249 9.09236 14.8353 8.50538 15.4522C8.38559 15.578 8.24184 15.6918 8.08611 15.8296ZM6.70251 14.3801C6.97803 14.6556 7.23559 14.9132 7.5171 15.1947C7.63689 15.0629 7.77465 14.9371 7.89444 14.7934C8.10408 14.5418 8.09809 14.2124 7.88845 14.0028C7.67283 13.7871 7.33142 13.7931 7.07986 14.0207C6.94809 14.1345 6.82829 14.2603 6.70251 14.3801Z" fill="white"/>
<path d="M16.873 4.21106C17.0946 4.43267 17.2983 4.63632 17.5259 4.86392C17.7116 4.67225 17.9032 4.46262 18.1009 4.25897C18.3285 4.03137 18.604 4.0134 18.7957 4.20507C18.9814 4.39673 18.9634 4.66626 18.7298 4.89986C18.5321 5.09751 18.3345 5.28319 18.1428 5.46887C18.3704 5.68449 18.5741 5.88215 18.8136 6.10376C19.0113 5.90012 19.2509 5.64257 19.5024 5.40298C19.6582 5.25324 19.8439 5.21132 20.0355 5.31913C20.2212 5.42095 20.2991 5.58866 20.2571 5.79231C20.2392 5.88215 20.1853 5.97798 20.1254 6.04387C19.7899 6.39126 19.4426 6.73866 19.0952 7.08007C18.8676 7.30168 18.634 7.29569 18.4064 7.06809C17.5858 6.24751 16.7652 5.42694 15.9446 4.60637C15.6991 4.3608 15.7051 4.13319 15.9446 3.88163C16.2681 3.5522 16.5975 3.22277 16.9269 2.89934C17.1426 2.68371 17.4181 2.67772 17.6037 2.8634C17.7954 3.05507 17.7774 3.31262 17.5558 3.54022C17.3282 3.77382 17.0886 4.00142 16.873 4.21106Z" fill="white"/>
<path d="M15.0337 6.04294C15.7585 6.76768 16.4532 7.46247 17.154 8.16325C17.2199 8.22914 17.2858 8.28903 17.3277 8.3669C17.4355 8.54059 17.3996 8.78018 17.2499 8.92393C17.1061 9.06169 16.8785 9.08565 16.7108 8.97184C16.6389 8.92393 16.573 8.85804 16.5131 8.79216C15.8723 8.15127 15.2314 7.51039 14.5905 6.8695C14.5306 6.8096 14.4707 6.7557 14.3809 6.67184C14.2671 6.80361 14.1652 6.9294 14.0454 7.0432C13.8418 7.24085 13.5663 7.24684 13.3866 7.06117C13.2069 6.87549 13.2129 6.62393 13.4105 6.42028C13.8598 5.95908 14.315 5.50388 14.7762 5.05466C14.9858 4.85101 15.2553 4.85101 15.435 5.04268C15.6027 5.22236 15.5967 5.48591 15.4111 5.68955C15.2973 5.79736 15.1715 5.90518 15.0337 6.04294Z" fill="white"/>
<path d="M18.4476 12.2734C18.184 15.5737 15.2731 18.251 12.2783 18.4427C14.3268 16.4003 16.3992 14.3219 18.4476 12.2734Z" fill="#17171D"/>
<path d="M10.8054 4.52148C8.6971 6.62982 6.6247 8.70221 4.56428 10.7626C4.42053 9.94805 5.301 7.89961 6.31324 6.79154C7.51116 5.47982 9.00855 4.73112 10.8054 4.52148Z" fill="#17171D"/>
<path d="M11.1106 13.771C10.4817 13.1361 9.8528 12.5072 9.21191 11.8543C9.3377 11.7345 9.47546 11.6088 9.60723 11.477C9.88275 11.2134 10.2062 11.1416 10.5596 11.2733C11.1046 11.477 11.4939 11.8603 11.6976 12.4054C11.8354 12.7707 11.7695 13.1121 11.488 13.3937C11.3742 13.5254 11.2484 13.6452 11.1106 13.771Z" fill="#17171D"/>
<path d="M14.1293 9.50495C13.9137 9.70859 13.722 9.89427 13.5184 10.0859C13.3686 9.75651 13.2129 9.40911 13.0332 9.00781C13.4285 9.1875 13.7639 9.34323 14.1293 9.50495Z" fill="#17171D"/>
<path d="M6.70215 14.3804C6.82793 14.2606 6.94772 14.1348 7.0735 14.021C7.32506 13.7934 7.66647 13.7874 7.8821 14.0031C8.09173 14.2127 8.09772 14.5421 7.88809 14.7937C7.76829 14.9374 7.63652 15.0632 7.51074 15.195C7.23522 14.9195 6.97767 14.6619 6.70215 14.3804Z" fill="#17171D"/>
</svg>
