<svg width="26" height="26" viewBox="0 0 26 26" fill="none" xmlns="http://www.w3.org/2000/svg">
<rect width="26" height="26" rx="5" fill="#0084CF"/>
<path fill-rule="evenodd" clip-rule="evenodd" d="M7.75 7.75C7.15326 7.75 6.58097 7.98705 6.15901 8.40901C5.73705 8.83097 5.5 9.40326 5.5 10V16C5.5 16.5967 5.73705 17.169 6.15901 17.591C6.58097 18.0129 7.15326 18.25 7.75 18.25H15.25C15.8467 18.25 16.419 18.0129 16.841 17.591C17.2629 17.169 17.5 16.5967 17.5 16V14.8105L19.2197 16.5303C19.3246 16.6351 19.4583 16.7065 19.6037 16.7354C19.7492 16.7644 19.9 16.7495 20.037 16.6928C20.174 16.636 20.2911 16.5399 20.3736 16.4166C20.456 16.2933 20.5 16.1483 20.5 16V10C20.5 9.85169 20.456 9.70671 20.3736 9.58341C20.2911 9.4601 20.174 9.36399 20.037 9.30724C19.9 9.25049 19.7492 9.23564 19.6037 9.26456C19.4583 9.29349 19.3246 9.36489 19.2197 9.46975L17.5 11.1895V10C17.5 9.40326 17.2629 8.83097 16.841 8.40901C16.419 7.98705 15.8467 7.75 15.25 7.75H7.75Z" fill="white"/>
</svg>
