<svg width="23" height="23" viewBox="0 0 23 23" fill="none" xmlns="http://www.w3.org/2000/svg">
<path d="M11.5 14.375C13.0878 14.375 14.375 13.0878 14.375 11.5C14.375 9.91218 13.0878 8.625 11.5 8.625C9.91218 8.625 8.625 9.91218 8.625 11.5C8.625 13.0878 9.91218 14.375 11.5 14.375Z" fill="#17171D"/>
<path d="M22.2378 11.2556C21.3925 9.06893 19.9249 7.17788 18.0165 5.81619C16.108 4.45449 13.8424 3.68185 11.4997 3.59375C9.15694 3.68185 6.89135 4.45449 4.98293 5.81619C3.07452 7.17788 1.60693 9.06893 0.761569 11.2556C0.704477 11.4135 0.704477 11.5865 0.761569 11.7444C1.60693 13.9311 3.07452 15.8221 4.98293 17.1838C6.89135 18.5455 9.15694 19.3182 11.4997 19.4062C13.8424 19.3182 16.108 18.5455 18.0165 17.1838C19.9249 15.8221 21.3925 13.9311 22.2378 11.7444C22.2949 11.5865 22.2949 11.4135 22.2378 11.2556ZM11.4997 16.1719C10.5757 16.1719 9.67243 15.8979 8.90414 15.3845C8.13585 14.8712 7.53705 14.1415 7.18344 13.2878C6.82984 12.4342 6.73732 11.4948 6.91759 10.5886C7.09785 9.68231 7.54281 8.84986 8.19618 8.19649C8.84955 7.54311 9.682 7.09816 10.5883 6.91789C11.4945 6.73763 12.4339 6.83015 13.2875 7.18375C14.1412 7.53735 14.8709 8.13616 15.3842 8.90445C15.8976 9.67273 16.1716 10.576 16.1716 11.5C16.1697 12.7385 15.6768 13.9257 14.8011 14.8014C13.9254 15.6771 12.7382 16.17 11.4997 16.1719Z" fill="#17171D"/>
</svg>
